<?xml version="1.0" encoding="utf-8" ?>
<svg baseProfile="full" height="100%" version="1.1" viewBox="0,0,1000,120" width="100%" xmlns="http://www.w3.org/2000/svg" xmlns:ev="http://www.w3.org/2001/xml-events" xmlns:xlink="http://www.w3.org/1999/xlink"><defs /><rect fill="white" height="120" width="1000" x="0" y="0" /><path d="M0,0 M490.69384765625,49.125587463378906 L490.90411376953125,49.04035949707031 L491.2110900878906,48.921051025390625 L491.5704040527344,48.791629791259766 L491.90509033203125,48.684452056884766 L492.2407531738281,48.58857345581055 L492.57415771484375,48.499691009521484 L492.91094970703125,48.4138298034668 L493.2538757324219,48.33113479614258 L493.6028747558594,48.2559814453125 L493.9532470703125,48.183475494384766 L494.3000183105469,48.11557388305664 L494.63543701171875,48.048641204833984 L494.9575500488281,47.97957992553711 L495.270751953125,47.9102783203125 L495.5763244628906,47.84418869018555 L495.8778381347656,47.7811279296875 L496.18353271484375,47.72361755371094 L496.4887390136719,47.66874694824219 L496.78863525390625,47.611061096191406 L497.0805358886719,47.5487060546875 L497.3618469238281,47.483760833740234 L497.6342468261719,47.42091369628906 L497.907958984375,47.36540985107422 L498.1802978515625,47.31720733642578 L498.449462890625,47.274024963378906 L498.71417236328125,47.23573303222656 L498.9631042480469,47.19416046142578 L499.1905212402344,47.144744873046875 L499.4012451171875,47.089195251464844 L499.5992736816406,47.02937698364258 L499.7923278808594,46.97027587890625 L499.9883117675781,46.91419982910156 L500.18682861328125,46.855735778808594 L500.3885192871094,46.793418884277344 L500.5939025878906,46.726783752441406 L500.7983703613281,46.65972137451172 L500.996826171875,46.59624481201172 L501.1840515136719,46.53601837158203 L501.3658752441406,46.48023223876953 L501.5461120605469,46.428829193115234 L501.724609375,46.38075637817383 L501.8992614746094,46.33892822265625 L502.06549072265625,46.301849365234375 L502.22576904296875,46.267601013183594 L502.38690185546875,46.23454666137695 L502.55078125,46.197574615478516 L502.7157897949219,46.155303955078125 L502.8841552734375,46.11329650878906 L503.0405578613281,46.07293701171875 L503.1903991699219,46.036865234375 L503.33428955078125,46.004032135009766 L503.4687805175781,45.96955871582031 L503.59637451171875,45.9344482421875 L503.730224609375,45.907108306884766 L503.8640441894531,45.88925552368164 L503.9993896484375,45.882137298583984 L504.1380615234375,45.8859748840332 L504.2732849121094,45.89700698852539 L504.4002685546875,45.91183853149414 L504.5272521972656,45.933406829833984 L504.6557922363281,45.96090316772461 L504.7896423339844,45.993648529052734 L504.9341735839844,46.03195571899414 L505.08172607421875,46.073734283447266 L505.2276306152344,46.114013671875 L505.37091064453125,46.15597915649414 L505.51263427734375,46.200687408447266 L505.6479187011719,46.250404357910156 L505.7762451171875,46.30947494506836 L505.8955993652344,46.3787841796875 L506.0096435546875,46.45854949951172 L506.122802734375,46.55228042602539 L506.24310302734375,46.65620422363281 L506.3682861328125,46.76517105102539 L506.4941711425781,46.879947662353516 L506.6190490722656,46.99764633178711 L506.740234375,47.11637878417969 L506.8617248535156,47.23957061767578 L506.9875183105469,47.36555099487305 L507.1173400878906,47.49458312988281 L507.2475891113281,47.62936019897461 L507.37548828125,47.76895523071289 L507.4996032714844,47.9071159362793 L507.6208801269531,48.04564666748047 L507.7441711425781,48.18130111694336 L507.8697204589844,48.31867980957031 L507.9988708496094,48.45833969116211 L508.1281433105469,48.59713363647461 L508.2494812011719,48.73239517211914 L508.360595703125,48.868255615234375 L508.47125244140625,49.0079345703125 L508.593505859375,49.15260314941406 L508.7305603027344,49.30170822143555 L508.8723449707031,49.44670104980469 L509.0036315917969,49.586647033691406 L509.1324157714844,49.73233413696289 L509.23529052734375,49.856815338134766 L509.30615234375,49.94176483154297 " fill="none" stroke="red" stroke-linecap="round" stroke-width="1" /></svg>